<svg xmlns="http://www.w3.org/2000/svg" viewBox="0 0 64 64">
  <defs>
    <linearGradient id="bg" x1="8" x2="56" y1="6" y2="58" gradientUnits="userSpaceOnUse">
      <stop stop-color="#113f67"/>
      <stop offset="0.55" stop-color="#1c6f7b"/>
      <stop offset="1" stop-color="#1f8a5f"/>
    </linearGradient>
    <linearGradient id="accent" x1="18" x2="48" y1="18" y2="48" gradientUnits="userSpaceOnUse">
      <stop stop-color="#67e8f9"/>
      <stop offset="1" stop-color="#f6c453"/>
    </linearGradient>
  </defs>
  <rect width="64" height="64" rx="14" fill="#0f172a"/>
  <path d="M13 18.5 25 14l14 4.5 12-4.5v31.5L39 50l-14-4.5L13 50V18.5Z" fill="url(#bg)" stroke="#d9f7f3" stroke-opacity=".78" stroke-width="2"/>
  <path d="M25 14v31.5M39 18.5V50" stroke="#d9f7f3" stroke-opacity=".38" stroke-width="2"/>
  <path d="M18 36c5-8 9-5 13-11 4-5 8-4 15-2" fill="none" stroke="url(#accent)" stroke-linecap="round" stroke-width="3"/>
  <rect x="17" y="20" width="11" height="8" rx="2" fill="#e0f2fe" opacity=".95"/>
  <rect x="39" y="30" width="10" height="8" rx="2" fill="#fef3c7" opacity=".95"/>
  <circle cx="18" cy="36" r="2" fill="#67e8f9"/>
  <circle cx="31" cy="25" r="2" fill="#f6c453"/>
  <circle cx="46" cy="23" r="2" fill="#67e8f9"/>
  <circle cx="46" cy="43" r="8" fill="#064e3b" stroke="#bbf7d0" stroke-width="2"/>
  <path d="m42 43 3 3 6-7" fill="none" stroke="#bbf7d0" stroke-linecap="round" stroke-linejoin="round" stroke-width="2.5"/>
</svg>
